<svg id="Layer_1" data-name="Layer 1" xmlns="http://www.w3.org/2000/svg" viewBox="0 0 27.43 27.43"><defs><style>.cls-1{fill:#ffd140;}</style></defs><title>Teacher_profile final</title><path class="cls-1" d="M8.59,7.67a21.91,21.91,0,0,1,.86-5.44C10.33,0,13.24.17,14.67.53c2.5.62,2.36,3,2.47,6A102.08,102.08,0,0,1,17,19.37c-.09,1.08-.21,2-1,2.51a4.21,4.21,0,0,1-3.5.15c-2.23-1.07-1.65-7-1.4-9.61,0-.54.67-.49.62.06A29.52,29.52,0,0,0,11.69,18c.13,1.51.21,2.77,1.62,3.42a2.57,2.57,0,0,0,2.15-.15c1.26-1.12,1.09-3.48,1.15-5.21s.07-3.49,0-5.23-.09-3.28-.16-4.92a16.65,16.65,0,0,0-.1-2.24c-.32-1.93-1.16-2.18-2.33-2.37s-2.9-.17-3.79,1.13-.9,3.76-1.06,5.34a71.38,71.38,0,0,0-.34,9.91c.1,2.94.08,6.91,2.4,8.13a6.33,6.33,0,0,0,3.27.48c1.94-.12,3.3-.84,3.69-3.67a44.11,44.11,0,0,0,.18-9.94c0-.53.57-.71.62-.17A40,40,0,0,1,18.65,24c-.6,2.79-2.67,3.09-4.49,3.13-2,0-4.21-.38-5.14-3-1-3-.86-7.09-.8-10.38Q8.28,10.68,8.59,7.67Z"/><path class="cls-1" d="M16.88,26.91a6.35,6.35,0,0,1-2.71.51c-1.84,0-4.4-.24-5.46-3.24-1-2.76-.89-6.39-.83-9.59l0-.91c0-2,.16-4.08.37-6h0c0-.33.06-.68.09-1a16.73,16.73,0,0,1,.79-4.49c.95-2.36,4-2.3,5.6-1.89,2.54.63,2.61,2.92,2.69,5.58,0,.23,0,.47,0,.71a100.48,100.48,0,0,1-.1,12.88,3.27,3.27,0,0,1-1.16,2.76,4.52,4.52,0,0,1-3.81.17c-2.42-1.16-1.86-7-1.58-9.88v0a.67.67,0,0,1,.7-.67.68.68,0,0,1,.56.79A29.11,29.11,0,0,0,12,17.93V18c.12,1.45.22,2.5,1.43,3.06a2.29,2.29,0,0,0,1.79-.1c1-.87,1-2.65,1-4.22,0-.26,0-.52,0-.76.06-1.58.07-3.28,0-5.21,0-1.72-.09-3.44-.15-4.92,0-.22,0-.45,0-.69a10.28,10.28,0,0,0-.08-1.51C15.79,2,15.1,1.76,14,1.58s-2.69-.16-3.47,1c-.64.94-.81,2.9-.94,4.34,0,.3,0,.59-.07.85a69.72,69.72,0,0,0-.33,9.87v.53c.09,2.79.19,6.26,2.21,7.32a6.14,6.14,0,0,0,3.1.45c1.82-.11,3-.72,3.39-3.4a44.62,44.62,0,0,0,.18-9.86.8.8,0,0,1,.31-.73.58.58,0,0,1,.59-.06.63.63,0,0,1,.36.56A39.46,39.46,0,0,1,19,24,3.82,3.82,0,0,1,16.88,26.91ZM8.51,15.36c-.06,2.95,0,6.16.81,8.6s3.06,2.87,4.83,2.82,3.63-.3,4.18-2.88a33.65,33.65,0,0,0,.58-8.22,43.39,43.39,0,0,1-.36,6.94c-.46,3.3-2.28,3.85-4,3.95a6.52,6.52,0,0,1-3.42-.52c-2.36-1.23-2.47-4.92-2.56-7.87l0-.53C8.53,16.88,8.51,16.12,8.51,15.36Zm2.8-1.3c-.2,2.72-.29,6.89,1.36,7.68a3.89,3.89,0,0,0,3.18-.13c.64-.41.77-1.12.86-2.15a3.56,3.56,0,0,1-1,2,2.82,2.82,0,0,1-2.49.2c-1.55-.71-1.67-2.1-1.8-3.58V18A28.26,28.26,0,0,1,11.31,14.06ZM11.14,1.24a5,5,0,0,1,3-.29,2.5,2.5,0,0,1,2.38,1.74A2.4,2.4,0,0,0,14.6.84C13.16.48,10.53.4,9.75,2.35a9.38,9.38,0,0,0-.54,2.29A6.05,6.05,0,0,1,10,2.21,2.81,2.81,0,0,1,11.14,1.24Z"/></svg>