<svg enable-background="new 0 0 299.1 61.7" viewBox="0 0 299.1 61.7" xmlns="http://www.w3.org/2000/svg"><path d="m267.3 60.9c-12.6 1.6-26.1.3-38.6 0-5.2-.1-10.4-.3-15.7-.4-25.9-.8-51.9-1.8-77.8-1.8-31.5.1-62.9 1.8-94.3 2-5.3 0-10.7-.1-15.9-1.3-13.3-3.2-22-13.8-24.3-24.5-1.3-6.1-1-12.5 2.5-18.1 3.3-5.3 9.4-9.1 16-11.4 18.1-6.3 39-5.5 58.2-5.2 51.2 1 102.5 1.1 153.7.7 8.8-.1 17.6-.1 26.5.1 8.1.2 16.4.1 23.7 3.2 8.5 3.5 14.1 9.9 16.4 17.3 3.2 10.3 1.1 22.9-8 30.9-2.3 2.1-5.2 3.8-8.3 5-4.5 1.9-9.3 2.9-14.1 3.5z" fill="#f4f4f4"/></svg>